/* XPM */
static char *_319c4442f6b485fd51296fa5be5e4f1[] = {
/* columns rows colors chars-per-pixel */
"64 64 19 1 ",
"  c #0080C2",
". c #0081C2",
"X c #0080C3",
"o c #0081C3",
"O c #0082C2",
"+ c #0082C3",
"@ c #0080C4",
"# c #0081C4",
"$ c #0082C4",
"% c #4FC9ED",
"& c #50C9EC",
"* c #51C9EC",
"= c #50C8ED",
"- c #50C9ED",
"; c #51C9ED",
": c #50CAED",
"> c #50C9EE",
", c #50CAEE",
"< c None",
/* pixels */
"<<<<<<<<<<<<<<<<<<<<<<<<<<<<<<<<<<<<<<<<<<<<<<<<<<<<<<<<<<<<<<<<",
"<<<<<<<<<<<<<<<<<<<<<<<<<<<<<<<<<<<<<<<<<<<<<<<<<<<<<<<<<<<<<<<<",
"<<<<<<<<<<<<<<<<<<<<<<<<<<<<<<<<<<<<<<<<<<<<<<<<<<<<<<<<<<<<<<<<",
"<<<<<<<<<<<<<<<<<<<<<<<<<<<<<<<<<<<<<<<<<<<<<<<<<<<<<<<<<<<<<<<<",
"<<<<<<<<<<<<<<<<<<<<<<<<<<<<<<<<<<<<<<<<<<<<<<<<<<<<<<<<<<<<<<<<",
"<<<<<<<<<<<<<<<<<<<<<<<<<<<<<<<<<<<<<<<<<<<<<<<<<<<<<<<<<<<<<<<<",
"<<<<<<<<<<<<<<<<<<<<<<<<<<<<<<<<<<<<<<<<<<<<<<<<<<<<<<<<<<<<<<<<",
"<<<<<<<<<<<<<<<<<<<<<<<<<<<<<<<<<<<<<<<<<<<<<<<<<<<<<<<<<<<<<<<<",
"<<<<<<<<<<<<<<<<<<<<<<<<<<<<<<<<<<<<<<<<<<<<<<<<<<<<<<<<<<<<<<<<",
"<<<<<<<<<<<<<<<<<<<<<<<<<<<<<<<<<<<<<<<<<<<<<<<<<<<<<<<<<<<<<<<<",
"<<<<<<<<<<<<<<<<<<<<<<oooooooo#<<<<<<<<<<<<<<<<<<<<<<<<<<<<<<<<<",
"<<<<<<<<<<<<<<<<<<#ooooooooooooooo#<<<<<<<<<<<<<<<<<<<<<<<<<<<<<",
"<<<<<<<<<<<<<<<<ooooooooooooooooooooo<<<<<<<<<<<<<<<<<<<<<<<<<<<",
"<<<<<<<<<<<<<<#oooooooooooooooooooooooo<<<<<<<<<<<<<<<<<<<<<<<<<",
"<<<<<<<<<<<<<ooooooooooooooooooooooooooo<<<<<<<<<<<<<<<<<<<<<<<<",
"<<<<<<<<<<<<oooooooooo<<<<<<<<<oooooooooo<<<<<<<<<<<<<<<<<<<<<<<",
"<<<<<<<<<<<oooooooo<<<<<<<<<<<<<<<<<<<<<<<<<<<<<<<<<<<<<<<<<<<<<",
"<<<<<<<<<<ooooooo<<<<<<<<<<<<<<<<<<<<<<<<<<<<<<<<<<<<<<<<<<<<<<<",
"<<<<<<<<<ooooooo<<<<<<<<<<<<<<<<<<<<<<<<<<<<<<oooo<<<<<<<<<<<<<<",
"<<<<<<<<ooooooo<<<<<<oooooooooooooooooooooooooooooo<<<<<<<<<<<<<",
"<<<<<<<<oooooo<<<<<<#oooooooooooooooooooooooooooo<<<<<<<<<<<<<<<",
"<<<<<<<oooooo<<<<<<<<oooooooooooooooooooooooooooo#<<<<<<<<<<<<<<",
"<<<<<<<ooooo<<<<<<<<<<<<<<<<<<<<<<<<<<<<<<<<<<oooo<<<<<<<<<<<<<<",
"<<<<<<ooooo<<<<<<<<<<<<<<<<<<<<<<<<<<<<<<<<<<<<<<<<<<<<<::<<<<<<",
"<<<<<<ooooo<<<<<<<<<<<<<<<<<<<<<<<<<<<<<<<<<<<<<<<<<<<:=:=:<<<<<",
"<<<<<ooooo<<<<<<<<<<<<<<<<<<<::::::=:::::=::::=::::=:=::=:<:<<<<",
"<<<<<ooooo<<<<<<<<<<<<<<<<<<<:::::=:=::=:::::=:=::=::::=:=<=<<<<",
"<<<<<ooooo<<<<<<<<<<<<<<<<<<<:::::::::::::::::::::::::::=:::<<<<",
"<<<<<ooooo<<<<<<<<<<<<<<<<<<<<<<<<<<<<<<<<<<<<<<<<<<<<<::::<<<<<",
"<<<<ooooo<<<<<<<<<<<<<<<<<<<<<<<<<<<<<<<<<<<<<<<<<ooo<<<<<<<<<<<",
"<<<<@oooo<<<<<<<<<<<<<<<<<<<<<<<<<<<<<<<<<<<<<<<<ooo#o<<<<<<<<<<",
"<<<<#oooo<<<<<<<<<<<<<<ooooooooooooooooooooooooooooo<#<<<<<<<<<<",
"<<<<ooooo<<<<<<<<<<<<<<#oooooo##ooooooooooooooooooo<<o<<<<<<<<<<",
"<<<<ooooo<<<<<<<<<<<<<<<ooooooo#oooooooo##ooooo#oooooo<<<<<<<<<<",
"<<<<ooooo<<<<<<<<<<<<<<<<<<<<<<<<<<<<<<<<<<<<<<<<#ooo<<<<<<<<<<<",
"<<<<<oooo<<<<<<<<<<<<<<<<<<<<<<<<<<<<<<<<<<<<:<<<<<<<<<<<<<<<<<<",
"<<<<<oooo#<<<<<<<<<<<<<<<<<<<<<<<<<<<<<<<<<<:=::<<<<<<<<<<<<<<<<",
"<<<<<ooooo<<<<<<<<:::=::::>:=::::::=::>:=:::=::<:<<<<<<<<<<<<<<<",
"<<<<<ooooo<<<<<<<<;:=::=:=::::::::=::=:::==::==<:<<<<<<<<<<<<<<<",
"<<<<<<oooo#<<<<<<<<;****;;;;***;;;**;;:=*;;:=:::=<<<<<<<<<<<<<<<",
"<<<<<<ooooo<<<<<<<<<<<<<<<<<<<<<<<<<<<<<<<<<::::<<<<<<<<<<<<<<<<",
"<<<<<<#ooooo<<<<<<<<<<<<<<<<<<<<<<<<<<<<<<<<<<<<<<ooo<<<<<<<<<<<",
"<<<<<<<oooooo<<<<<<<<<<<<<<<<<<<<<<<<<<<<<<<<<<<<oooo <<<<<<<<<<",
"<<<<<<<oooooo<<<<<<<<<<oooooooooooo#oooooooooooooooo< <<<<<<<<<<",
"<<<<<<<<oooooo<<<<<<<<<ooooooooooooooooooooooooooooo<o<<<<<<<<<<",
"<<<<<<<<<oooooo<<<<<<<<<<<<<<<<<<<<<<ooooooo<<<<oooooo<<<<<<<<<<",
"<<<<<<<<<<ooooooo<<<<<<<<<<<<<<<<<<<ooooooo<<<<<<#ooo<<<<<<<<<<<",
"<<<<<<<<<<<ooooooo<<<<<<<<<<<<<<<<oooooooo<<<<<<<<<<<<<<<<<<<<<<",
"<<<<<<<<<<<<ooooooooo<<<<<<<<<<<#oooooooo<<<<<<<<<<<<<<<<<<<<<<<",
"<<<<<<<<<<<<<ooooooooooooooooooooooooooo<<<<<<<<<<<<<<<<<<<<<<<<",
"<<<<<<<<<<<<<<ooooooooooooooooooooooooo<<<<<<<<<<<<<<<<<<<<<<<<<",
"<<<<<<<<<<<<<<<<ooooooooooooooooooooo<<<<<<<<<<<<<<<<<<<<<<<<<<<",
"<<<<<<<<<<<<<<<<<<#ooooooooooooooo#<<<<<<<<<<<<<<<<<<<<<<<<<<<<<",
"<<<<<<<<<<<<<<<<<<<<<ooooooooooo<<<<<<<<<<<<<<<<<<<<<<<<<<<<<<<<",
"<<<<<<<<<<<<<<<<<<<<<<<<<<<<<<<<<<<<<<<<<<<<<<<<<<<<<<<<<<<<<<<<",
"<<<<<<<<<<<<<<<<<<<<<<<<<<<<<<<<<<<<<<<<<<<<<<<<<<<<<<<<<<<<<<<<",
"<<<<<<<<<<<<<<<<<<<<<<<<<<<<<<<<<<<<<<<<<<<<<<<<<<<<<<<<<<<<<<<<",
"<<<<<<<<<<<<<<<<<<<<<<<<<<<<<<<<<<<<<<<<<<<<<<<<<<<<<<<<<<<<<<<<",
"<<<<<<<<<<<<<<<<<<<<<<<<<<<<<<<<<<<<<<<<<<<<<<<<<<<<<<<<<<<<<<<<",
"<<<<<<<<<<<<<<<<<<<<<<<<<<<<<<<<<<<<<<<<<<<<<<<<<<<<<<<<<<<<<<<<",
"<<<<<<<<<<<<<<<<<<<<<<<<<<<<<<<<<<<<<<<<<<<<<<<<<<<<<<<<<<<<<<<<",
"<<<<<<<<<<<<<<<<<<<<<<<<<<<<<<<<<<<<<<<<<<<<<<<<<<<<<<<<<<<<<<<<",
"<<<<<<<<<<<<<<<<<<<<<<<<<<<<<<<<<<<<<<<<<<<<<<<<<<<<<<<<<<<<<<<<",
"<<<<<<<<<<<<<<<<<<<<<<<<<<<<<<<<<<<<<<<<<<<<<<<<<<<<<<<<<<<<<<<<"
};
