/* XPM */
static char *_b1d668ad9ff4bb0eb10f1d87778d9fb[] = {
/* columns rows colors chars-per-pixel */
"128 128 21 1 ",
"  c #0080C2",
". c #0081C2",
"X c #0080C3",
"o c #0081C3",
"O c #0082C2",
"+ c #0082C3",
"@ c #0080C4",
"# c #0081C4",
"$ c #0082C4",
"% c #4FC8EC",
"& c #4FC9EC",
"* c #4FC8ED",
"= c #4FC9ED",
"- c #50C9EC",
"; c #51C9EC",
": c #50C9ED",
"> c #51C9ED",
", c #50CAED",
"< c #50C9EE",
"1 c #51C9EE",
"2 c None",
/* pixels */
"22222222222222222222222222222222222222222222222222222222222222222222222222222222222222222222222222222222222222222222222222222222",
"22222222222222222222222222222222222222222222222222222222222222222222222222222222222222222222222222222222222222222222222222222222",
"22222222222222222222222222222222222222222222222222222222222222222222222222222222222222222222222222222222222222222222222222222222",
"22222222222222222222222222222222222222222222222222222222222222222222222222222222222222222222222222222222222222222222222222222222",
"22222222222222222222222222222222222222222222222222222222222222222222222222222222222222222222222222222222222222222222222222222222",
"22222222222222222222222222222222222222222222222222222222222222222222222222222222222222222222222222222222222222222222222222222222",
"22222222222222222222222222222222222222222222222222222222222222222222222222222222222222222222222222222222222222222222222222222222",
"22222222222222222222222222222222222222222222222222222222222222222222222222222222222222222222222222222222222222222222222222222222",
"22222222222222222222222222222222222222222222222222222222222222222222222222222222222222222222222222222222222222222222222222222222",
"22222222222222222222222222222222222222222222222222222222222222222222222222222222222222222222222222222222222222222222222222222222",
"22222222222222222222222222222222222222222222222222222222222222222222222222222222222222222222222222222222222222222222222222222222",
"22222222222222222222222222222222222222222222222222222222222222222222222222222222222222222222222222222222222222222222222222222222",
"22222222222222222222222222222222222222222222222222222222222222222222222222222222222222222222222222222222222222222222222222222222",
"22222222222222222222222222222222222222222222222222222222222222222222222222222222222222222222222222222222222222222222222222222222",
"22222222222222222222222222222222222222222222222222222222222222222222222222222222222222222222222222222222222222222222222222222222",
"22222222222222222222222222222222222222222222222222222222222222222222222222222222222222222222222222222222222222222222222222222222",
"22222222222222222222222222222222222222222222222222222222222222222222222222222222222222222222222222222222222222222222222222222222",
"22222222222222222222222222222222222222222222222222222222222222222222222222222222222222222222222222222222222222222222222222222222",
"22222222222222222222222222222222222222222222222222222222222222222222222222222222222222222222222222222222222222222222222222222222",
"22222222222222222222222222222222222222222222222222222222222222222222222222222222222222222222222222222222222222222222222222222222",
"2222222222222222222222222222222222222222222222ooo$oooooooooo22222222222222222222222222222222222222222222222222222222222222222222",
"22222222222222222222222222222222222222222$ooooooooooooooooooooooo222222222222222222222222222222222222222222222222222222222222222",
"22222222222222222222222222222222222222oooooooooooooooooooooooooooooo222222222222222222222222222222222222222222222222222222222222",
"22222222222222222222222222222222222oooooooooooooooooooooooooooooooooooo222222222222222222222222222222222222222222222222222222222",
"222222222222222222222222222222222oooooooooooooooooooooooooooooooooooooooo2222222222222222222222222222222222222222222222222222222",
"2222222222222222222222222222222ooooooooooooooooooooooooooooooooooooooooooo$22222222222222222222222222222222222222222222222222222",
"222222222222222222222222222222oooooooooooooooooooooooooooooooooooooooooooooo2222222222222222222222222222222222222222222222222222",
"2222222222222222222222222222ooooooooooooooooooooooooooooooooooooooooooooooooo$22222222222222222222222222222222222222222222222222",
"222222222222222222222222222oooooooooooooooooooooooooooooooooooooooooooooooooooo2222222222222222222222222222222222222222222222222",
"2222222222222222222222222oooooooooooooooooooooooo$o$oo$oo$oooooooooooooooooooooo222222222222222222222222222222222222222222222222",
"222222222222222222222222ooooooooooooooooooooo2222222222222222ooooooooooooooooooooo2222222222222222222222222222222222222222222222",
"22222222222222222222222ooooooooooooooooooo2222222222222222222222ooooooooooooooooooo222222222222222222222222222222222222222222222",
"2222222222222222222222ooooooooooooooooo22222222222222222222222222222222222222222222222222222222222222222222222222222222222222222",
"222222222222222222222oooooooooooooooo2222222222222222222222222222222222222222222222222222222222222222222222222222222222222222222",
"22222222222222222222ooooooooooooooo222222222222222222222222222222222222222222222222222222222222222222222222222222222222222222222",
"2222222222222222222oooooooooooooo$2222222222222222222222222222222222222222222222222222222222222ooo222222222222222222222222222222",
"222222222222222222oooooooooooooo2222222222222222222222222222222222222222222222222222222222222ooooooo2222222222222222222222222222",
"222222222222222222ooooooooooooo2222222222222222222222222222222222222222222222222222222222222ooooooooo222222222222222222222222222",
"22222222222222222ooooooooooooo2222222222222222222222222222222222222222222222222222222222222$oooooooooo22222222222222222222222222",
"2222222222222222ooooooooooooo222222222222oooooooooooooooooooooooooooooooooooooooooooooooooooooooooo$2o22222222222222222222222222",
"222222222222222ooooooooooooo2222222222222oooooooooooooooooooooooooooooooooooooooooooooooooooooooooo22222222222222222222222222222",
"222222222222222oooooooooooo22222222222222oooooooooooooooooooooooooooooooooooooooooooooooooooooooooo22222222222222222222222222222",
"22222222222222oooooooooooo222222222222222oooooooooooooooooooooooooooooooooooooooooooooooooooooooooo22222222222222222222222222222",
"22222222222222ooooooooooo222222222222222222222222222222222222222222222222222222222222222222oooooooo22o22222222222222222222222222",
"2222222222222$oooooooooo22222222222222222222222222222222222222222222222222222222222222222222ooooooooo222222222222222222222222222",
"2222222222222ooooooooooo22222222222222222222222222222222222222222222222222222222222222222222oooooooo2222222222222222222222222222",
"222222222222ooooooooooo22222222222222222222222222222222222222222222222222222222222222222222222ooooo22222222222222222222222222222",
"222222222222oooooooooo$2222222222222222222222222222222222222222222222222222222222222222222222222222222222222222=:::::22222222222",
"22222222222$oooooooooX222222222222222222222222222222222222222222222222222222222222222222222222222222222222222:::::::::2222222222",
"22222222222oooooooooo$22222222222222222222222222222222222222222222222222222222222222222222222222222222222222:::::::::::222222222",
"22222222222oooooooooo2222222222222222222222222222222222222,:::::::::::::::::::::::::::::::::::::::::::::::::::::::::22:222222222",
"2222222222ooooooooooo2222222222222222222222222222222222222,::::::::::::::::::::::::::::::::::::::::::::::::::::::::222::22222222",
"2222222222oooooooooo22222222222222222222222222222222222222:::::::::::::::::::::::::::::::::::::::::::::::::::::::::222::22222222",
"2222222222ooooooooo$22222222222222222222222222222222222222::::::::::::::::::::::::::::::::::::::::::::::::::::::::::22::22222222",
"2222222222oooooooooo22222222222222222222222222222222222222:::::::::::::::::::::::::::::::::::::::::::::::::::::::::=2::222222222",
"222222222oooooooooo22222222222222222222222222222222222222222222222222222222222222222222222222222222222222222:::::::::::222222222",
"222222222oooooooooo222222222222222222222222222222222222222222222222222222222222222222222222222222222222222222:::::::::2222222222",
"222222222oooooooooo2222222222222222222222222222222222222222222222222222222222222222222222222222222222222222222:::::::22222222222",
"222222222oooooooooo2222222222222222222222222222222222222222222222222222222222222222222222222222222222ooo22222222:::2222222222222",
"222222222oooooooooo22222222222222222222222222222222222222222222222222222222222222222222222222222222ooooooo2222222222222222222222",
"222222222ooooooooo22222222222222222222222222222222222222222222222222222222222222222222222222222222ooooooooo222222222222222222222",
"222222222ooooooooo2222222222222222222222222222222222222222222222222222222222222222222222222222222ooooooooooo22222222222222222222",
"222222222ooooooooo2222222222222222222222222222ooooooooooooooooooooooooooooooooooooooooooooooooooooooooo22ooo22222222222222222222",
"222222222ooooooooo2222222222222222222222222222ooooooooooooooooooooooooooooooooooooooooooooooooooooooooo22$o$22222222222222222222",
"222222222ooooooooo2222222222222222222222222222Xoooooooooooooooooooooooooooooooooooooooooooooooooooooooo22ooo22222222222222222222",
"222222222ooooooooo2222222222222222222222222222Xoooooooooooooooooooooooooooooooooooooooooooooooooooooooo22ooo22222222222222222222",
"222222222ooooooooo2222222222222222222222222222ooooooooooooooooooooooooooooooooooooooooooooooooo$ooooooo22ooo22222222222222222222",
"222222222ooooooooo2222222222222222222222222222222222222222222222222222222222222222222222222222222oooooooooo$22222222222222222222",
"222222222oooooooooo2222222222222222222222222222222222222222222222222222222222222222222222222222222$oooooooo222222222222222222222",
"222222222oooooooooo22222222222222222222222222222222222222222222222222222222222222222222222222222222ooooooo2222222222222222222222",
"222222222ooooooooo$2222222222222222222222222222222222222222222222222222222222222222222222222222222222222222222222222222222222222",
"222222222oooooooooo2222222222222222222222222222222222222222222222222222222222222222222222>:::::222222222222222222222222222222222",
"222222222oooooooooo222222222222222222222222222222222222222222222222222222222222222222222::::::::22222222222222222222222222222222",
"2222222222ooooooooo$2222222222222222222222222222222222222222222222222222222222222222222::::::::::2222222222222222222222222222222",
"2222222222ooooooooo$22222222222222222;>;;;;>>;;;>;;;;;>;;;;::;;;:;;;:;:;:;;;;;:;;;>>>;::::::::22:2222222222222222222222222222222",
"2222222222oooooooooo2222222222222222:::::::::::::::::::::::::::::::::::::::::::::::::::::::::222:>222222222222222222222222222222",
"2222222222$oooooooooo222222222222222:::::::::::::::::::::::::::::::::::::::::::::::::::::::::222::222222222222222222222222222222",
"22222222222oooooooooo222222222222222::::::::::::::::::::::::::::::::::::::::::::::::::::::::::22::222222222222222222222222222222",
"22222222222oooooooooo222222222222222::::::::::::::::::::::::::::::::::::::::::::::::::::::::::2:::222222222222222222222222222222",
"22222222222ooooooooooo22222222222222222222222222222222222222222222222222222222222222222::::::::::2222222222222222222222222222222",
"222222222222oooooooooo222222222222222222222222222222222222222222222222222222222222222222::::::::22222222222222222222222222222222",
"222222222222ooooooooooo222222222222222222222222222222222222222222222222222222222222222222::::::222222222222222222222222222222222",
"2222222222222oooooooooo222222222222222222222222222222222222222222222222222222222222222222222:2222222oooo222222222222222222222222",
"2222222222222ooooooooooo222222222222222222222222222222222222222222222222222222222222222222222222222ooooooo2222222222222222222222",
"22222222222222ooooooooooo2222222222222222222222222222222222222222222222222222222222222222222222222ooooooooo222222222222222222222",
"22222222222222oooooooooooo222222222222222222222oooooooooooooooooooooooooooooooooooooooooooooooooooooooooo2o$22222222222222222222",
"222222222222222ooooooooooo22222222222222222222oooooooooooooooooooooooooooooooooooooooooooooooooooooooooo222o22222222222222222222",
"222222222222222oooooooooooo2222222222222222222Xooooooooooooooooooooooooooooooooooooooooooooooooooooooooo222o22222222222222222222",
"2222222222222222oooooooooooo222222222222222222oooooooooooooooooooooooooooooooooooooooooooooooooooooooooo222o22222222222222222222",
"2222222222222222$oooooooooooo22222222222222222Xoooooooooooooooooooooooooooooooooooooooooooooooooooooooooo2oo22222222222222222222",
"22222222222222222ooooooooooooo2222222222222222Xooooooooooooooooooooooooooooooooooooooooooooooooooooooooooooo22222222222222222222",
"222222222222222222oooooooooooooX222222222222222222222222222222222222222222oooooooooooooo222222222ooooooooooo22222222222222222222",
"2222222222222222222oooooooooooooo2222222222222222222222222222222222222222oooooooooooooo22222222222ooooooooo222222222222222222222",
"22222222222222222222oooooooooooooo2222222222222222222222222222222222222ooooooooooooooo22222222222222oooooo2222222222222222222222",
"222222222222222222222oooooooooooooo$2222222222222222222222222222222222ooooooooooooooo2222222222222222222222222222222222222222222",
"2222222222222222222222oooooooooooooooo222222222222222222222222222222oooooooooooooooo22222222222222222222222222222222222222222222",
"22222222222222222222222ooooooooooooooooo2222222222222222222222222$ooooooooooooooooo222222222222222222222222222222222222222222222",
"222222222222222222222222oooooooooooooooooo$22222222222222222222ooooooooooooooooooo2222222222222222222222222222222222222222222222",
"2222222222222222222222222ooooooooooooooooooooooo2222222222o$ooooooooooooooooooooo22222222222222222222222222222222222222222222222",
"22222222222222222222222222oooooooooooooooooooooooooooooooooooooooooooooooooooooo222222222222222222222222222222222222222222222222",
"222222222222222222222222222ooooooooooooooooooooooooooooooooooooooooooooooooooo22222222222222222222222222222222222222222222222222",
"22222222222222222222222222222oooooooooooooooooooooooooooooooooooooooooooooooo222222222222222222222222222222222222222222222222222",
"2222222222222222222222222222222oooooooooooooooooooooooooooooooooooooooooooo22222222222222222222222222222222222222222222222222222",
"22222222222222222222222222222222ooooooooooooooooooooooooooooooooooooooooo2222222222222222222222222222222222222222222222222222222",
"2222222222222222222222222222222222ooooooooooooooooooooooooooooooooooooo222222222222222222222222222222222222222222222222222222222",
"2222222222222222222222222222222222222oooooooooooooooooooooooooooooooo22222222222222222222222222222222222222222222222222222222222",
"2222222222222222222222222222222222222222oooooooooooooooooooooooooo22222222222222222222222222222222222222222222222222222222222222",
"2222222222222222222222222222222222222222222$ooooooooooooooooo$o22222222222222222222222222222222222222222222222222222222222222222",
"222222222222222222222222222222222222222222222222222$ooo$222222222222222222222222222222222222222222222222222222222222222222222222",
"22222222222222222222222222222222222222222222222222222222222222222222222222222222222222222222222222222222222222222222222222222222",
"22222222222222222222222222222222222222222222222222222222222222222222222222222222222222222222222222222222222222222222222222222222",
"22222222222222222222222222222222222222222222222222222222222222222222222222222222222222222222222222222222222222222222222222222222",
"22222222222222222222222222222222222222222222222222222222222222222222222222222222222222222222222222222222222222222222222222222222",
"22222222222222222222222222222222222222222222222222222222222222222222222222222222222222222222222222222222222222222222222222222222",
"22222222222222222222222222222222222222222222222222222222222222222222222222222222222222222222222222222222222222222222222222222222",
"22222222222222222222222222222222222222222222222222222222222222222222222222222222222222222222222222222222222222222222222222222222",
"22222222222222222222222222222222222222222222222222222222222222222222222222222222222222222222222222222222222222222222222222222222",
"22222222222222222222222222222222222222222222222222222222222222222222222222222222222222222222222222222222222222222222222222222222",
"22222222222222222222222222222222222222222222222222222222222222222222222222222222222222222222222222222222222222222222222222222222",
"22222222222222222222222222222222222222222222222222222222222222222222222222222222222222222222222222222222222222222222222222222222",
"22222222222222222222222222222222222222222222222222222222222222222222222222222222222222222222222222222222222222222222222222222222",
"22222222222222222222222222222222222222222222222222222222222222222222222222222222222222222222222222222222222222222222222222222222",
"22222222222222222222222222222222222222222222222222222222222222222222222222222222222222222222222222222222222222222222222222222222",
"22222222222222222222222222222222222222222222222222222222222222222222222222222222222222222222222222222222222222222222222222222222",
"22222222222222222222222222222222222222222222222222222222222222222222222222222222222222222222222222222222222222222222222222222222",
"22222222222222222222222222222222222222222222222222222222222222222222222222222222222222222222222222222222222222222222222222222222",
"22222222222222222222222222222222222222222222222222222222222222222222222222222222222222222222222222222222222222222222222222222222",
"22222222222222222222222222222222222222222222222222222222222222222222222222222222222222222222222222222222222222222222222222222222"
};
