/* XPM */
static char *bitcoin32[] = {
/* columns rows colors chars-per-pixel */
"32 32 17 1 ",
"  c #0080C2",
". c #0081C2",
"X c #0080C3",
"o c #0081C3",
"O c #0082C2",
"+ c #0082C3",
"@ c #0080C4",
"# c #0081C4",
"$ c #4FC9EC",
"% c #4FC9ED",
"& c #50C9EC",
"* c #50C8ED",
"= c #50C9ED",
"- c #50CAED",
"; c #50C9EE",
": c #51C9EE",
"> c None",
/* pixels */
">>>>>>>>>>>>>>>>>>>>>>>>>>>>>>>>",
">>>>>>>>>>>>>>>>>>>>>>>>>>>>>>>>",
">>>>>>>>>>>>>>>>>>>>>>>>>>>>>>>>",
">>>>>>>>>>>>>>>>>>>>>>>>>>>>>>>>",
">>>>>>>>>>>>>>>>>>>>>>>>>>>>>>>>",
">>>>>>>>>>#ooooo#>>>>>>>>>>>>>>>",
">>>>>>>>ooooooooooo>>>>>>>>>>>>>",
">>>>>>ooooo#>>o#oooo>>>>>>>>>>>>",
">>>>>oooo>>>>>>>>>>>>>>>>>>>>>>>",
">>>>ooo#>>>>>>>>>>>>>>>oo>>>>>>>",
">>>>ooo>>>ooooooooooooooo>>>>>>>",
">>>ooo>>>>>>>>>>>>>>>>>oo>>>>>>>",
">>>oo>>>>>>>>>>;----;;;&;&;;;>>>",
">>ooo>>>>>>>>>>;;;;;;;;;;;;;;&>>",
">>#oo>>>>>>>>>>>>>>>>>>>>>>>;>>>",
">>ooo>>>>>>>oXoXoooooooo#oo>>>>>",
">>ooo>>>>>>>++oooooooo++o#o>>>>>",
">>+o+>>>>>>>>>>>>>>>>>>>>o>>>>>>",
">>ooo>>>>>>>>>>>>>>>>;;;>>>>>>>>",
">>>oo>>>>;&;;;;;;;;;&&;$>>>>>>>>",
">>>ooo>>>>>>>>>>>>>>>>>>>>>>>>>>",
">>>>oo#>>>>>oooooooooooooo>>>>>>",
">>>>oooo>>>>ooooooooooooooo>>>>>",
">>>>>oooo>>>>>>>>>ooo>>>>#>>>>>>",
">>>>>>ooooo>>>>#oooo>>>>>>>>>>>>",
">>>>>>>>ooooooooooo>>>>>>>>>>>>>",
">>>>>>>>>>#oooooo>>>>>>>>>>>>>>>",
">>>>>>>>>>>>>>>>>>>>>>>>>>>>>>>>",
">>>>>>>>>>>>>>>>>>>>>>>>>>>>>>>>",
">>>>>>>>>>>>>>>>>>>>>>>>>>>>>>>>",
">>>>>>>>>>>>>>>>>>>>>>>>>>>>>>>>",
">>>>>>>>>>>>>>>>>>>>>>>>>>>>>>>>"
};
